<svg xmlns="http://www.w3.org/2000/svg" viewBox="0 0 11.03 20.401">
  <defs>
    <style>
      .cls-1 {
        fill: #fff;
      }
    </style>
  </defs>
  <g id="facebook-logo" transform="translate(-22.077)">
    <path id="Path_87" data-name="Path 87" class="cls-1" d="M32.692,0,30.046,0a4.646,4.646,0,0,0-4.893,5.021V7.336h-2.66a.416.416,0,0,0-.416.416v3.354a.416.416,0,0,0,.416.416h2.66v8.463a.416.416,0,0,0,.416.416H29.04a.416.416,0,0,0,.416-.416V11.522h3.11a.416.416,0,0,0,.416-.416V7.752a.416.416,0,0,0-.416-.416H29.456V5.373c0-.943.225-1.422,1.453-1.422h1.782a.416.416,0,0,0,.416-.416V.42A.416.416,0,0,0,32.692,0Z"/>
  </g>
</svg>
