<svg id="google-plus" xmlns="http://www.w3.org/2000/svg" viewBox="0 0 17.479 17.482">
  <defs>
    <style>
      .cls-1 {
        fill: #fff;
      }
    </style>
  </defs>
  <path id="Path_1" data-name="Path 1" class="cls-1" d="M9.587,93.064h4.269a5.427,5.427,0,1,1-1.473-5.819.588.588,0,0,0,.8,0l1.568-1.476a.586.586,0,0,0,0-.852,8.709,8.709,0,0,0-5.836-2.393,8.741,8.741,0,1,0,8.553,9.231c.007-.058.011-2.006.011-2.006H9.587A.586.586,0,0,0,9,90.332v2.146A.586.586,0,0,0,9.587,93.064Z" transform="translate(0 -82.519)"/>
</svg>
