<svg xmlns="http://www.w3.org/2000/svg" viewBox="0 0 45.766 48.659">
  <defs>
    <style>
      .cls-1 {
        fill: #f26f0b;
      }
    </style>
  </defs>
  <g id="headphones" transform="translate(-14.15)">
    <path id="Path_134" data-name="Path 134" class="cls-1" d="M53.68,18.5V16.632A17.09,17.09,0,0,0,49.223,4.907,15.373,15.373,0,0,0,37.815,0H36.271A15.373,15.373,0,0,0,24.863,4.907a17.09,17.09,0,0,0-4.457,11.725V18.5a6.713,6.713,0,0,0-6.256,6.686v2.924a6.706,6.706,0,0,0,6.7,6.7h3.772a1.23,1.23,0,0,0,1.227-1.227V19.709a1.23,1.23,0,0,0-1.227-1.227H22.86v-1.85c0-8.086,5.765-14.179,13.4-14.179H37.8c7.646,0,13.4,6.093,13.4,14.179v1.85H49.448a1.23,1.23,0,0,0-1.227,1.227V33.571A1.23,1.23,0,0,0,49.448,34.8h1.717c-.5,6.4-4.907,7.882-6.951,8.219a4.314,4.314,0,0,0-4.1-2.975H37.048a4.309,4.309,0,0,0,0,8.618h3.077a4.314,4.314,0,0,0,4.15-3.169,11.6,11.6,0,0,0,4.161-1.421c2.218-1.3,4.845-3.946,5.193-9.282A6.7,6.7,0,0,0,59.916,28.1V25.178A6.679,6.679,0,0,0,53.68,18.5ZM23.412,32.344H20.866A4.245,4.245,0,0,1,16.624,28.1V25.178a4.245,4.245,0,0,1,4.242-4.242h2.545ZM40.125,46.206H37.048a1.85,1.85,0,0,1,0-3.7h3.077a1.85,1.85,0,1,1,0,3.7ZM57.473,28.1a4.245,4.245,0,0,1-4.242,4.242H50.685V20.936h2.545a4.245,4.245,0,0,1,4.242,4.242Z"/>
  </g>
</svg>
