<svg xmlns="http://www.w3.org/2000/svg" viewBox="0 0 35.127 40.493">
  <defs>
    <style>
      .cls-1 {
        fill: #f26f0b;
      }
    </style>
  </defs>
  <g id="wallet" transform="translate(-21.961 0)">
    <g id="Group_342" data-name="Group 342" transform="translate(21.961 0)">
      <g id="Group_341" data-name="Group 341" transform="translate(0 0)">
        <path id="Path_124" data-name="Path 124" class="cls-1" d="M55.773,6.974,43.411.28a2.607,2.607,0,0,0-3.42,1.026L32.759,14.743H23.964a1.981,1.981,0,0,0-2,2V38.489a1.981,1.981,0,0,0,2,2H52.059a1.981,1.981,0,0,0,2-2V33.407h.831a.772.772,0,0,0,.782-.782V26.811a.772.772,0,0,0-.782-.782h-.831V20.313A2.039,2.039,0,0,0,52.5,18.358l4.3-7.964A2.561,2.561,0,0,0,55.773,6.974ZM46.978,3.993,39.258,18.31h-2.2l8.257-15.2Zm-5.57-1.954a.961.961,0,0,1,1.27-.391l1.222.684L35.3,18.31H32.613ZM23.476,16.7a.471.471,0,0,1,.44-.391H31.88L30.8,18.261H23.915a1.353,1.353,0,0,0-.44.049ZM52.45,38.489a.438.438,0,0,1-.44.44H23.915a.438.438,0,0,1-.44-.44V20.313a.438.438,0,0,1,.44-.44H51.961a.438.438,0,0,1,.44.44V26.03H49.421a2.346,2.346,0,0,0-2.345,2.345v2.687a2.346,2.346,0,0,0,2.345,2.345H52.45Zm1.564-10.9h.049v4.251H49.421a.772.772,0,0,1-.782-.782V28.375a.772.772,0,0,1,.782-.782ZM55.382,9.612l-4.691,8.7H41.017L48.346,4.775l6.645,3.616A.855.855,0,0,1,55.382,9.612Z" transform="translate(-21.961 0)"/>
      </g>
    </g>
    <g id="Group_344" data-name="Group 344" transform="translate(48.437 8.442)">
      <g id="Group_343" data-name="Group 343" transform="translate(0)">
        <path id="Path_125" data-name="Path 125" class="cls-1" d="M242.674,69.546l-.391-.2a2.139,2.139,0,0,0-2.834.831l-.489.928a2.058,2.058,0,0,0-.147,1.612,1.968,1.968,0,0,0,1.026,1.222l.391.2a2.224,2.224,0,0,0,.977.244,2.2,2.2,0,0,0,1.857-1.075l.489-.928A2.189,2.189,0,0,0,242.674,69.546Zm-.537,2.1-.489.928a.552.552,0,0,1-.733.2l-.391-.244a.719.719,0,0,1-.244-.293.369.369,0,0,1,.049-.391l.489-.928a.648.648,0,0,1,.489-.293.44.44,0,0,1,.244.049l.391.2A.76.76,0,0,1,242.136,71.647Z" transform="translate(-238.71 -69.108)"/>
      </g>
    </g>
  </g>
</svg>
