<svg xmlns="http://www.w3.org/2000/svg" viewBox="0 0 49.599 49.599">
  <defs>
    <style>
      .cls-1 {
        fill: #f26f0b;
        stroke: #f26f0b;
        stroke-width: 0.7px;
      }
    </style>
  </defs>
  <g id="libra" transform="translate(0.35 0.35)">
    <path id="Path_138" data-name="Path 138" class="cls-1" d="M41.738,7.161A24.45,24.45,0,1,0,7.161,41.738,24.45,24.45,0,1,0,41.738,7.161Zm-.577,34A23.633,23.633,0,1,1,7.739,7.739,23.633,23.633,0,1,1,41.161,41.161Z"/>
    <path id="Path_139" data-name="Path 139" class="cls-1" d="M70.383,53.47h-.111L65.934,42.351a5.356,5.356,0,0,0,1.078-.552,4.34,4.34,0,0,0,1.05-.951.347.347,0,0,0-.433-.516,6.172,6.172,0,0,1-5.993-.378,16.366,16.366,0,0,0-7.262-2.538v-1.87a3.395,3.395,0,1,0-3.643-.095v1.965a16.369,16.369,0,0,0-7.262,2.538,6.171,6.171,0,0,1-5.993.378.347.347,0,0,0-.433.516,4.34,4.34,0,0,0,1.05.951,5.476,5.476,0,0,0,1.844.779L35.688,53.47h-.111a.348.348,0,0,0-.348.348,5.635,5.635,0,0,0,11.271,0,.348.348,0,0,0-.348-.348h-.111L41.84,42.7a8.982,8.982,0,0,0,2.62-.661A20.111,20.111,0,0,1,50.731,40.6V60.152h-.811A1.923,1.923,0,0,0,48,62.005H46.936a1.288,1.288,0,0,0-1.286,1.286v.914a.348.348,0,0,0,.348.348H59.108a.348.348,0,0,0,.348-.348v-.914a1.288,1.288,0,0,0-1.286-1.286H57.1a1.923,1.923,0,0,0-1.919-1.853h-.811V40.6a20.11,20.11,0,0,1,6.272,1.436,8.519,8.519,0,0,0,3.2.686q.138,0,.271-.006L59.919,53.47h-.112a.348.348,0,0,0-.348.348,5.635,5.635,0,0,0,11.271,0A.348.348,0,0,0,70.383,53.47ZM49.927,32.635a2.7,2.7,0,1,1,2.7,2.7A2.7,2.7,0,0,1,49.927,32.635Zm1.5,3.175a3.386,3.386,0,0,0,2.253.052v1.5q-.561-.032-1.126-.027t-1.126.027Zm2.253,2.247v1.821c-.1,0-.2,0-.3,0H51.731c-.1,0-.2,0-.3,0V38.056q.559-.033,1.123-.027h.007Q53.12,38.023,53.679,38.057Zm-12.814,20.7a4.947,4.947,0,0,1-4.928-4.593h9.856A4.947,4.947,0,0,1,40.865,58.758ZM36.434,53.47l4.2-10.779q.224.022.463.029L45.3,53.47ZM44.2,41.394a6.29,6.29,0,0,1-5.157.148,6.889,6.889,0,0,0,4.806-1,15.669,15.669,0,0,1,6.885-2.424V39.9A20.813,20.813,0,0,0,44.2,41.394Zm14.563,21.9v.567H46.345v-.567a.592.592,0,0,1,.591-.591H58.17A.592.592,0,0,1,58.761,63.291ZM56.409,62H48.7a1.227,1.227,0,0,1,1.224-1.158h5.264A1.227,1.227,0,0,1,56.409,62Zm-2.73-1.853H51.426V40.573c.1,0,.2,0,.305,0h1.643c.1,0,.2,0,.3,0V60.152Zm7.229-18.759A20.817,20.817,0,0,0,54.374,39.9v-1.79a15.667,15.667,0,0,1,6.885,2.423,6.887,6.887,0,0,0,4.806,1A6.29,6.29,0,0,1,60.908,41.394Zm3.984,1.241c.13-.023.255-.049.376-.078L69.526,53.47H60.665Zm.2,16.124a4.947,4.947,0,0,1-4.928-4.593h9.856A4.947,4.947,0,0,1,65.1,58.758Z" transform="translate(-28.531 -23.169)"/>
  </g>
</svg>
