<svg xmlns="http://www.w3.org/2000/svg" viewBox="0 0 16.696 15.53">
  <defs>
    <style>
      .cls-1 {
        fill: #fff;
      }
    </style>
  </defs>
  <path id="yahoo" class="cls-1" d="M16.461,19.817H9.9a.235.235,0,0,0-.234.258L9.791,21.4a.235.235,0,0,0,.221.212l1.371.075L8.751,25.343l-2.871-5.72,2.073-.079a.235.235,0,0,0,.226-.232l.015-1.187a.235.235,0,0,0-.235-.238H.235A.235.235,0,0,0,0,18.121v1.323a.235.235,0,0,0,.232.235l2.182.031,4.15,7.321L6.546,31.6l-2.885.118a.235.235,0,0,0-.226.231l-.023,1.223a.236.236,0,0,0,.235.24h9.025a.235.235,0,0,0,.235-.248l-.063-1.211a.235.235,0,0,0-.223-.223l-2.482-.13-.361-4.454,4.456-5.37,1.814-.083a.236.236,0,0,0,.215-.168l.421-1.4a.236.236,0,0,0-.223-.311Z" transform="translate(0 -17.886)"/>
</svg>
