<svg xmlns="http://www.w3.org/2000/svg" viewBox="0 0 24 24">
  <defs>
    <style>
      .cls-1, .cls-3 {
        fill: #fff;
      }

      .cls-1 {
        stroke: #444f63;
        stroke-width: 0.9px;
      }

      .cls-2 {
        fill: #f18a0a;
      }

      .cls-4 {
        stroke: none;
      }

      .cls-5 {
        fill: none;
      }
    </style>
  </defs>
  <g id="Group_874" data-name="Group 874" transform="translate(-27 -313)">
    <g id="Ellipse_9" data-name="Ellipse 9" class="cls-1" transform="translate(27 313)">
      <circle class="cls-4" cx="12" cy="12" r="12"/>
      <circle class="cls-5" cx="12" cy="12" r="11.55"/>
    </g>
    <g id="Group_557" data-name="Group 557" transform="translate(31.945 317.69)">
      <g id="Rectangle_257" data-name="Rectangle 257" class="cls-1" transform="translate(0 1.313)">
        <rect class="cls-4" width="13.679" height="12.735" rx="3"/>
        <rect class="cls-5" x="0.45" y="0.45" width="12.779" height="11.835" rx="2.55"/>
      </g>
      <g id="coin" transform="translate(3.2 4.042)">
        <path id="Path_205" data-name="Path 205" class="cls-2" d="M3.581,0A3.581,3.581,0,1,0,7.162,3.581,3.585,3.585,0,0,0,3.581,0Zm0,6.691a3.11,3.11,0,1,1,3.11-3.11A3.113,3.113,0,0,1,3.581,6.691Z" transform="translate(0 0)"/>
        <path id="Path_206" data-name="Path 206" class="cls-2" d="M73.595,30.143V28.8a.678.678,0,0,1,.331.263.236.236,0,1,0,.394-.259,1.147,1.147,0,0,0-.724-.493v-.374a.236.236,0,0,0-.471,0v.374a1.15,1.15,0,0,0,0,2.251V31.9a.678.678,0,0,1-.331-.263.236.236,0,1,0-.394.259,1.147,1.147,0,0,0,.724.493v.374a.236.236,0,0,0,.471,0v-.374a1.15,1.15,0,0,0,0-2.251Zm-.915-.7a.679.679,0,0,1,.443-.635v1.271A.679.679,0,0,1,72.68,29.441Zm.915,2.463V30.633a.677.677,0,0,1,0,1.271Z" transform="translate(-69.778 -26.773)"/>
      </g>
      <rect id="Rectangle_260" data-name="Rectangle 260" class="cls-3" width="5.188" height="4.245" transform="translate(10.377 0.37)"/>
      <g id="Group_556" data-name="Group 556" transform="translate(10.95 0)">
        <rect id="Rectangle_259" data-name="Rectangle 259" class="cls-2" width="1.3" height="4.042" rx="0.65" transform="translate(4.042 1.837) rotate(90)"/>
      </g>
    </g>
  </g>
</svg>
