<svg xmlns="http://www.w3.org/2000/svg" viewBox="0 0 11.2 21.61">
  <defs>
    <style>
      .cls-1 {
        fill: #fff;
      }
    </style>
  </defs>
  <g id="Artboard_1" data-name="Artboard 1" transform="translate(-5.22 -0.469)">
    <path id="Path_87" data-name="Path 87" class="cls-1" d="M16,.48H13.29A4.588,4.588,0,0,0,9.624,1.937,5.05,5.05,0,0,0,8.29,5.794V8.252H5.64a.43.43,0,0,0-.42.439v3.546a.43.43,0,0,0,.42.439h2.7V21.64a.43.43,0,0,0,.42.439h3.51a.43.43,0,0,0,.42-.439V12.676h3.15a.41.41,0,0,0,.3-.125.449.449,0,0,0,.127-.314h0V8.691a.44.44,0,0,0-.43-.45H12.69V6.15c0-1.046.23-1.506,1.47-1.506H16a.43.43,0,0,0,.42-.439V.92A.43.43,0,0,0,16,.48Z" transform="translate(0 0)"/>
  </g>
</svg>
