<svg width="26" height="26" xmlns="http://www.w3.org/2000/svg">

 <g>
  <title>background</title>
  <rect fill="none" id="canvas_background" height="402" width="582" y="-1" x="-1"/>
 </g>
 <g>
  <title>Layer 1</title>
  <path id="svg_2" fill="#f27009" d="m24.89941,24.05377c0.02301,-0.04193 0.04078,-0.0841 0.05549,-0.13037c0.01525,-0.04773 0.02404,-0.09503 0.02948,-0.14575c0.00286,-0.02673 0.01562,-0.04999 0.01562,-0.07745c0,-0.02515 -0.0119,-0.04639 -0.01434,-0.07087c-0.00226,-0.02417 0.00537,-0.04693 0.00067,-0.07122l-1.83106,-9.48194c-0.00525,-0.0271 -0.02203,-0.04773 -0.0299,-0.07355c-0.01453,-0.04754 -0.03138,-0.09143 -0.05463,-0.13446c-0.02454,-0.0462 -0.05231,-0.08685 -0.08521,-0.12628c-0.02679,-0.03192 -0.05419,-0.06024 -0.08587,-0.08728c-0.04236,-0.03631 -0.08655,-0.06585 -0.13605,-0.09179c-0.03601,-0.01905 -0.07184,-0.03425 -0.11096,-0.04731c-0.0517,-0.01703 -0.10358,-0.02685 -0.1593,-0.03222c-0.0257,-0.00269 -0.04804,-0.01502 -0.0744,-0.01502l-4.08252,0l0.28173,-0.3833c0.00782,-0.00976 0.01465,-0.01953 0.02149,-0.0293c0.68262,-0.96093 1.49609,-2.5 1.49609,-4.37158c0,-3.92138 -3.17871,-7.11377 -7.09277,-7.13428c-0.00977,0 -0.01758,0 -0.02539,0s-0.01563,0 -0.02539,0c-3.91504,0.02051 -7.09375,3.2129 -7.09375,7.13428c0,1.85449 0.7998,3.38281 1.47949,4.34668c0.00684,0.01123 0.01465,0.02197 0.02246,0.0332l0.29724,0.4043l-4.11658,0c-0.02722,0 -0.05023,0.0127 -0.07666,0.0155c-0.05377,0.00544 -0.10388,0.01478 -0.15399,0.03107c-0.0412,0.01355 -0.07873,0.02948 -0.11645,0.04962c-0.04816,0.02539 -0.09119,0.05414 -0.13251,0.08936c-0.03223,0.0274 -0.06006,0.05609 -0.08722,0.08844c-0.0329,0.03943 -0.06073,0.08014 -0.08526,0.1264c-0.02308,0.04279 -0.03986,0.08649 -0.05433,0.13379c-0.00787,0.02588 -0.02465,0.04651 -0.0299,0.07373l-1.83106,9.48194c-0.0047,0.02429 0.00293,0.04705 0.00067,0.07122c-0.00244,0.02448 -0.01434,0.04572 -0.01434,0.07087c0,0.02746 0.01276,0.05072 0.01563,0.07745c0.00543,0.05072 0.01422,0.09802 0.02947,0.14575c0.01471,0.04627 0.03248,0.08844 0.05549,0.13037c0.02301,0.04224 0.0484,0.08002 0.07898,0.11713c0.0307,0.03723 0.06311,0.06952 0.10034,0.10016c0.03662,0.03033 0.0744,0.05566 0.11682,0.07873c0.04431,0.02423 0.08935,0.04199 0.13849,0.05701c0.02539,0.00781 0.04553,0.02454 0.0722,0.02972c0.04822,0.00916 0.09546,0.01337 0.14173,0.01349c0.0003,0 0.00054,0.00019 0.00085,0.00019l22.5,0c0.00031,0 0.00055,-0.00019 0.00085,-0.00019c0.04627,-0.00012 0.09351,-0.00433 0.14173,-0.01349c0.02667,-0.00518 0.04681,-0.02191 0.0722,-0.02972c0.04914,-0.01502 0.09418,-0.03278 0.13849,-0.05701c0.04242,-0.02307 0.0802,-0.0484 0.11682,-0.07873c0.03723,-0.03064 0.06964,-0.06293 0.10034,-0.10016c0.03058,-0.03711 0.05597,-0.07489 0.07898,-0.11713zm-17.50097,-15.36969c0,-3.10254 2.51953,-5.62744 5.61914,-5.63428c3.09961,0.00684 5.61816,2.53174 5.61816,5.63428c0,1.46436 -0.65234,2.69971 -1.20508,3.48438c-0.00195,0.00244 -0.0039,0.00439 -0.00586,0.00683l-4.40722,5.99561l-4.3916,-5.97315c-0.00293,-0.00341 -0.00489,-0.00683 -0.00782,-0.01025c-0.55664,-0.78418 -1.21972,-2.02832 -1.21972,-3.50342zm5.00195,11.18018c0.1416,0.19238 0.3916,0.30566 0.62988,0.30566s0.46289,-0.11377 0.6045,-0.30566l3.59899,-4.896l4.56623,0l1.54144,7.98194l-20.68286,0l1.54144,-7.98194l4.60053,0l3.59985,4.896z"/>
  <path id="svg_3" fill="#f27009" d="m13.03027,11.84717c1.74121,0 3.15821,-1.41895 3.15821,-3.16309s-1.417,-3.16308 -3.15821,-3.16308c-1.74218,0 -3.15918,1.41894 -3.15918,3.16308s1.417,3.16309 3.15918,3.16309zm0,-5.32617c1.19043,0 2.15821,0.97021 2.15821,2.16308s-0.96778,2.16309 -2.15821,2.16309s-2.15918,-0.97022 -2.15918,-2.16309s0.96875,-2.16308 2.15918,-2.16308z"/>
 </g>
</svg>