<svg xmlns="http://www.w3.org/2000/svg" viewBox="0 0 76.206 98.644">
  <defs>
    <style>
      .cls-1 {
        fill: #fff;
      }
    </style>
  </defs>
  <g id="fingerprint" transform="translate(-52.656)">
    <path id="Path_296" data-name="Path 296" class="cls-1" d="M165.829,236.008v-7a5.007,5.007,0,0,0-10.013,0v6.322a30.737,30.737,0,0,1-7.9,20.595l-7.027,7.808a1.6,1.6,0,0,0,2.376,2.138l7.027-7.807a33.93,33.93,0,0,0,8.723-22.733v-6.322a1.811,1.811,0,0,1,3.622,0v7a37.527,37.527,0,0,1-9.779,25.295L146,268.838a1.6,1.6,0,1,0,2.365,2.15l6.849-7.534A40.717,40.717,0,0,0,165.829,236.008Z" transform="translate(-69.109 -176.276)"/>
    <path id="Path_297" data-name="Path 297" class="cls-1" d="M161.432,203.824a11.824,11.824,0,0,0-23.649,0v6.322a23.93,23.93,0,0,1-6.153,16.034l-5,5.551a1.6,1.6,0,1,0,2.376,2.138l5-5.551a27.122,27.122,0,0,0,6.973-18.172v-6.322a8.629,8.629,0,0,1,17.257,0v7a44.331,44.331,0,0,1-11.552,29.881l-5.779,6.357a1.6,1.6,0,1,0,2.364,2.15l5.779-6.357a47.521,47.521,0,0,0,12.383-32.031Z" transform="translate(-57.895 -151.094)"/>
    <path id="Path_298" data-name="Path 298" class="cls-1" d="M151.369,178.642a18.642,18.642,0,0,0-37.284,0v6.322a17.123,17.123,0,0,1-4.4,11.473l-4.5,5a1.6,1.6,0,1,0,2.376,2.138l4.5-5a20.314,20.314,0,0,0,5.223-13.611v-6.322a15.446,15.446,0,0,1,30.893,0v7a51.134,51.134,0,0,1-13.325,34.467l-1.6,1.759a1.6,1.6,0,1,0,2.365,2.15l1.6-1.759a54.324,54.324,0,0,0,14.156-36.617v-7Z" transform="translate(-41.014 -125.912)"/>
    <path id="Path_299" data-name="Path 299" class="cls-1" d="M116.476,154.357a1.6,1.6,0,1,0,3.2,0,22.3,22.3,0,0,1,19.082-22.037,1.6,1.6,0,0,0-.454-3.163,25.5,25.5,0,0,0-21.823,25.2Z" transform="translate(-50.223 -101.627)"/>
    <path id="Path_300" data-name="Path 300" class="cls-1" d="M93.582,271.27a1.6,1.6,0,0,0-3.2,0,10.316,10.316,0,0,1-2.652,6.912l-4,4.446a1.6,1.6,0,1,0,2.376,2.138l4-4.446A13.508,13.508,0,0,0,93.582,271.27Z" transform="translate(-24.133 -212.218)"/>
    <path id="Path_301" data-name="Path 301" class="cls-1" d="M325.076,343.931a1.6,1.6,0,0,0-1.951,1.141,58.029,58.029,0,0,1-2.182,6.66,1.6,1.6,0,1,0,2.971,1.177,61.268,61.268,0,0,0,2.3-7.028A1.6,1.6,0,0,0,325.076,343.931Z" transform="translate(-211.039 -270.615)"/>
    <path id="Path_302" data-name="Path 302" class="cls-1" d="M305.943,157.118a1.6,1.6,0,0,0-2.137,2.376,22.3,22.3,0,0,1,7.4,16.557v7a58.516,58.516,0,0,1-.545,7.959,1.6,1.6,0,1,0,3.166.436,61.733,61.733,0,0,0,.575-8.4v-7A25.5,25.5,0,0,0,305.943,157.118Z" transform="translate(-197.225 -123.322)"/>
    <path id="Path_303" data-name="Path 303" class="cls-1" d="M252.2,134.239a1.6,1.6,0,0,0,1.374-2.885,25.25,25.25,0,0,0-7.273-2.2,1.6,1.6,0,0,0-.454,3.163A22.066,22.066,0,0,1,252.2,134.239Z" transform="translate(-150.951 -101.626)"/>
    <path id="Path_304" data-name="Path 304" class="cls-1" d="M223.759,96c-.6,0-1.2.017-1.8.049a1.6,1.6,0,1,0,.176,3.191c.537-.03,1.082-.045,1.621-.045a29.114,29.114,0,0,1,29.082,29.082v7a1.6,1.6,0,1,0,3.2,0v-7A32.314,32.314,0,0,0,223.759,96Z" transform="translate(-132.046 -75.547)"/>
    <path id="Path_305" data-name="Path 305" class="cls-1" d="M148.064,108.9a1.591,1.591,0,0,0,.911-.286,28.912,28.912,0,0,1,8.678-4.1,1.6,1.6,0,0,0-.867-3.076,32.1,32.1,0,0,0-9.635,4.555,1.6,1.6,0,0,0,.914,2.91Z" transform="translate(-73.822 -79.775)"/>
    <path id="Path_306" data-name="Path 306" class="cls-1" d="M75.547,170.24v-6.322a28.956,28.956,0,0,1,7.927-19.934,1.6,1.6,0,1,0-2.325-2.192,32.14,32.14,0,0,0-8.8,22.127v6.322a3.509,3.509,0,0,1-.9,2.351l-1.97,2.189a1.6,1.6,0,0,0,2.376,2.138l1.97-2.189A6.7,6.7,0,0,0,75.547,170.24Z" transform="translate(-12.916 -111.188)"/>
    <path id="Path_307" data-name="Path 307" class="cls-1" d="M369.125,135.538a38.88,38.88,0,0,0-8.278-13.985,1.6,1.6,0,0,0-2.353,2.162,35.7,35.7,0,0,1,7.6,12.842,1.6,1.6,0,0,0,3.029-1.019Z" transform="translate(-240.346 -95.249)"/>
    <path id="Path_308" data-name="Path 308" class="cls-1" d="M287.433,73.5a1.6,1.6,0,1,0-1.035,3.023,35.793,35.793,0,0,1,9.832,5.192,1.6,1.6,0,0,0,1.911-2.561A38.992,38.992,0,0,0,287.433,73.5Z" transform="translate(-183.092 -57.775)"/>
    <path id="Path_309" data-name="Path 309" class="cls-1" d="M66.885,77.19A35.719,35.719,0,0,1,91.713,67.2a36.234,36.234,0,0,1,5.155.369,1.6,1.6,0,0,0,.457-3.163,39.452,39.452,0,0,0-5.612-.4,39.141,39.141,0,0,0-39.055,37.319,1.6,1.6,0,0,0,1.524,1.668l.073,0a1.6,1.6,0,0,0,1.6-1.526A35.72,35.72,0,0,1,66.885,77.19Z" transform="translate(0 -50.365)"/>
    <path id="Path_310" data-name="Path 310" class="cls-1" d="M192.342,32a45.98,45.98,0,0,0-10.583,1.231,1.6,1.6,0,1,0,.737,3.109,42.8,42.8,0,0,1,9.847-1.145,42.353,42.353,0,0,1,30.8,13.144,1.6,1.6,0,1,0,2.3-2.214A45.789,45.789,0,0,0,192.342,32Z" transform="translate(-100.629 -25.182)"/>
    <path id="Path_311" data-name="Path 311" class="cls-1" d="M65.243,64.3a1.6,1.6,0,0,0,2.243-.273A42.993,42.993,0,0,1,84.824,50.835,1.6,1.6,0,0,0,83.6,47.883,46.2,46.2,0,0,0,64.971,62.059,1.6,1.6,0,0,0,65.243,64.3Z" transform="translate(-9.423 -37.585)"/>
    <path id="Path_312" data-name="Path 312" class="cls-1" d="M126.076,8.25a1.589,1.589,0,0,0,.693-.159,48.963,48.963,0,0,1,21.462-4.9,49.6,49.6,0,0,1,11.59,1.369,1.6,1.6,0,1,0,.747-3.107A52.793,52.793,0,0,0,148.231,0,52.133,52.133,0,0,0,125.38,5.213a1.6,1.6,0,0,0,.7,3.037Z" transform="translate(-56.519 0)"/>
    <path id="Path_313" data-name="Path 313" class="cls-1" d="M318,20a49.5,49.5,0,0,1,4.846,2.241,1.6,1.6,0,0,0,1.5-2.824,52.719,52.719,0,0,0-5.16-2.386A1.6,1.6,0,1,0,318,20Z" transform="translate(-208.022 -13.31)"/>
  </g>
</svg>
