<svg xmlns="http://www.w3.org/2000/svg" viewBox="0 0 21.61 21.606">
  <defs>
    <style>
      .cls-1 {
        fill: #fff;
      }
    </style>
  </defs>
  <g id="google-plus" transform="translate(0 0)">
    <path id="Path_1" data-name="Path 1" class="cls-1" d="M11.852,95.551H17.13a6.707,6.707,0,1,1-1.821-7.192.727.727,0,0,0,.989,0l1.938-1.824a.724.724,0,0,0,0-1.053,10.769,10.769,0,0,0-7.215-2.958A10.8,10.8,0,1,0,21.6,93.93c.008-.071.014-2.48.014-2.48H11.852a.724.724,0,0,0-.724.724v2.653A.724.724,0,0,0,11.852,95.551Z" transform="translate(0 -82.519)"/>
  </g>
</svg>
