<svg xmlns="http://www.w3.org/2000/svg" viewBox="0 0 43.262 32.859">
  <defs>
    <style>
      .cls-1 {
        fill: #f1730a;
      }
    </style>
  </defs>
  <g id="logout_1_" data-name="logout (1)" transform="translate(0 -58.95)">
    <g id="Group_351" data-name="Group 351" transform="translate(0 58.95)">
      <path id="Path_132" data-name="Path 132" class="cls-1" d="M0,64.429v21.9a5.49,5.49,0,0,0,5.479,5.479h17.7a5.49,5.49,0,0,0,5.479-5.479V82.783a1.085,1.085,0,0,0-2.171,0V86.33a3.325,3.325,0,0,1-3.318,3.318H5.479A3.325,3.325,0,0,1,2.162,86.33v-21.9a3.325,3.325,0,0,1,3.318-3.318h17.7A3.325,3.325,0,0,1,26.5,64.429v3.547a1.085,1.085,0,0,0,2.171,0V64.429a5.49,5.49,0,0,0-5.479-5.479H5.479A5.485,5.485,0,0,0,0,64.429Z" transform="translate(0 -58.95)"/>
      <path id="Path_133" data-name="Path 133" class="cls-1" d="M222.1,165.6a1.086,1.086,0,0,0,1.535,0l7.4-7.4a1.076,1.076,0,0,0,0-1.527l-7.4-7.4a1.079,1.079,0,0,0-1.526,1.527l5.559,5.559H207.385a1.085,1.085,0,0,0,0,2.171h20.277l-5.559,5.559A1.065,1.065,0,0,0,222.1,165.6Z" transform="translate(-188.097 -141.009)"/>
    </g>
  </g>
</svg>
