<svg xmlns="http://www.w3.org/2000/svg" viewBox="0 0 43.413 35.569">
  <defs>
    <style>
      .cls-1 {
        fill: #f26f0b;
        stroke: #e96b0b;
      }
    </style>
  </defs>
  <g id="support_3_" data-name="support (3)" transform="translate(0.5 -42.7)">
    <g id="Group_910" data-name="Group 910" transform="translate(0 43.2)">
      <g id="Group_909" data-name="Group 909" transform="translate(0 0)">
        <path id="Path_264" data-name="Path 264" class="cls-1" d="M348.941,148a3.338,3.338,0,0,0-2.36,5.7,3.481,3.481,0,0,0,2.36.98,3.341,3.341,0,0,0,0-6.681Zm1.67,5.011a2.36,2.36,0,0,1-4.031-1.67,2.27,2.27,0,0,1,.69-1.67,2.362,2.362,0,0,1,3.341,3.341Z" transform="translate(-314.226 -138.486)"/>
        <path id="Path_265" data-name="Path 265" class="cls-1" d="M129.741,148a3.347,3.347,0,1,0,2.36.98A3.323,3.323,0,0,0,129.741,148Zm1.67,5.011a2.36,2.36,0,0,1-4.031-1.67,2.27,2.27,0,0,1,.69-1.67,2.362,2.362,0,0,1,3.341,3.341Z" transform="translate(-114.925 -138.486)"/>
        <path id="Path_266" data-name="Path 266" class="cls-1" d="M239.341,148a3.347,3.347,0,1,0,2.36.98A3.323,3.323,0,0,0,239.341,148Zm1.67,5.011a2.36,2.36,0,0,1-4.031-1.67,2.271,2.271,0,0,1,.69-1.67,2.362,2.362,0,0,1,3.341,3.341Z" transform="translate(-214.576 -138.486)"/>
        <path id="Path_267" data-name="Path 267" class="cls-1" d="M41.359,44.253A3.513,3.513,0,0,0,38.854,43.2H10.422a3.451,3.451,0,0,0-2.506,1.053,3.513,3.513,0,0,0-1.053,2.506V58.015H2.506a2.625,2.625,0,0,0-1.779.726A2.468,2.468,0,0,0,0,60.521v11.62A2.625,2.625,0,0,0,.726,73.92a2.469,2.469,0,0,0,1.743.726H3.776v2A1.116,1.116,0,0,0,4.9,77.769a1.823,1.823,0,0,0,.436-.073,1.3,1.3,0,0,0,.363-.254l2.8-2.8H21.206a2.625,2.625,0,0,0,1.779-.726,2.468,2.468,0,0,0,.726-1.779V68h6.1l4.321,4.321a1.382,1.382,0,0,0,.472.327,1.457,1.457,0,0,0,.545.109,1.319,1.319,0,0,0,1.017-.436,1.456,1.456,0,0,0,.436-1.017V68h2.251a3.451,3.451,0,0,0,2.506-1.053,3.513,3.513,0,0,0,1.053-2.506V46.759A3.451,3.451,0,0,0,41.359,44.253ZM22.7,72.141a1.636,1.636,0,0,1-.436,1.089,1.478,1.478,0,0,1-1.089.436H8.315a.394.394,0,0,0-.327.145L5.047,76.752l-.036.036H4.938a.128.128,0,0,1-.145-.145V74.138a.481.481,0,0,0-.472-.472H2.542a1.636,1.636,0,0,1-1.089-.436,1.478,1.478,0,0,1-.436-1.089V60.521H.944a1.636,1.636,0,0,1,.436-1.089A1.478,1.478,0,0,1,2.469,59H6.827v5.447A3.451,3.451,0,0,0,7.88,66.948,3.513,3.513,0,0,0,10.385,68H22.7Zm18.81-7.7a2.6,2.6,0,0,1-2.614,2.614H36.167a.481.481,0,0,0-.472.472v3.776a.354.354,0,0,1-.145.327.541.541,0,0,1-.327.145.272.272,0,0,1-.182-.036.5.5,0,0,1-.145-.109l-4.539-4.466a.444.444,0,0,0-.327-.145H10.422a2.6,2.6,0,0,1-2.614-2.614V46.759a2.6,2.6,0,0,1,2.614-2.614H38.89A2.6,2.6,0,0,1,41.5,46.759Z" transform="translate(0 -43.2)"/>
      </g>
    </g>
  </g>
</svg>
