<svg xmlns="http://www.w3.org/2000/svg" viewBox="0 0 103.718 103.718">
  <defs>
    <style>
      .cls-1, .cls-7 {
        fill: none;
      }

      .cls-1, .cls-2, .cls-5 {
        stroke: #101119;
      }

      .cls-1 {
        stroke-width: 1.5px;
      }

      .cls-1, .cls-2, .cls-3, .cls-4 {
        opacity: 0.78;
      }

      .cls-2, .cls-3, .cls-5 {
        fill: #101119;
      }

      .cls-5 {
        stroke-width: 0.2px;
      }

      .cls-6 {
        stroke: none;
      }
    </style>
  </defs>
  <g id="Group_985" data-name="Group 985" transform="translate(-128 -166.641)">
    <g id="Rectangle_274" data-name="Rectangle 274" class="cls-1" transform="translate(128 166.641)">
      <rect class="cls-6" width="103.718" height="103.718" rx="4"/>
      <rect class="cls-7" x="0.75" y="0.75" width="102.218" height="102.218" rx="3.25"/>
    </g>
    <g id="Rectangle_275" data-name="Rectangle 275" class="cls-2" transform="translate(150.547 175.66)">
      <rect class="cls-6" width="13.528" height="13.528" rx="1"/>
      <rect class="cls-7" x="0.5" y="0.5" width="12.528" height="12.528" rx="0.5"/>
    </g>
    <g id="Rectangle_276" data-name="Rectangle 276" class="cls-2" transform="translate(173.095 175.66)">
      <rect class="cls-6" width="13.528" height="13.528" rx="1"/>
      <rect class="cls-7" x="0.5" y="0.5" width="12.528" height="12.528" rx="0.5"/>
    </g>
    <rect id="Rectangle_277" data-name="Rectangle 277" class="cls-3" width="13.528" height="13.528" rx="1" transform="translate(195.642 175.66)"/>
    <path id="Path_216" data-name="Path 216" class="cls-1" d="M4840.429,6617.873h100.529" transform="translate(-4710.496 -6420.347)"/>
    <g id="libra" class="cls-4" transform="translate(154.816 206.986)">
      <path id="Path_138" data-name="Path 138" class="cls-5" d="M43.092,7.393a25.243,25.243,0,1,0-35.7,35.7,25.243,25.243,0,1,0,35.7-35.7Zm-.6,35.1A24.4,24.4,0,1,1,7.99,7.99,24.4,24.4,0,1,1,42.5,42.5Z" transform="translate(0 0)"/>
      <path id="Path_139" data-name="Path 139" class="cls-5" d="M71.524,54.257h-.115L66.93,42.776a5.531,5.531,0,0,0,1.113-.57,4.481,4.481,0,0,0,1.084-.982.359.359,0,0,0-.447-.533,6.372,6.372,0,0,1-6.188-.391A16.9,16.9,0,0,0,55,37.68V35.749a3.505,3.505,0,1,0-3.761-.1V37.68a16.9,16.9,0,0,0-7.5,2.621,6.372,6.372,0,0,1-6.188.391.359.359,0,0,0-.447.533,4.481,4.481,0,0,0,1.084.982,5.654,5.654,0,0,0,1.9.8L35.7,54.257h-.114a.359.359,0,0,0-.359.359,5.818,5.818,0,0,0,11.636,0,.359.359,0,0,0-.359-.359h-.115L42.055,43.135a9.273,9.273,0,0,0,2.7-.683,20.764,20.764,0,0,1,6.475-1.483V61.155H50.4a1.985,1.985,0,0,0-1.981,1.913h-1.1A1.329,1.329,0,0,0,45.988,64.4v.944a.359.359,0,0,0,.359.359H59.883a.359.359,0,0,0,.359-.359V64.4a1.33,1.33,0,0,0-1.328-1.328h-1.1a1.985,1.985,0,0,0-1.981-1.913H55V40.969a20.762,20.762,0,0,1,6.475,1.483,8.8,8.8,0,0,0,3.3.708q.142,0,.28-.006l-4.33,11.1h-.115a.359.359,0,0,0-.359.359,5.818,5.818,0,0,0,11.636,0A.359.359,0,0,0,71.524,54.257ZM50.4,32.745a2.788,2.788,0,1,1,2.788,2.787A2.791,2.791,0,0,1,50.4,32.745Zm1.548,3.278a3.5,3.5,0,0,0,2.326.054v1.547q-.579-.033-1.163-.028t-1.163.027Zm2.326,2.32v1.88c-.1,0-.21,0-.314,0h-1.7c-.1,0-.209,0-.314,0V38.342q.577-.034,1.159-.028h.007Q53.7,38.308,54.278,38.343ZM41.048,59.716a5.107,5.107,0,0,1-5.088-4.742H46.136A5.107,5.107,0,0,1,41.048,59.716Zm-4.575-5.459,4.341-11.129q.231.023.478.03l4.33,11.1Zm8.015-12.469a6.494,6.494,0,0,1-5.325.153A7.113,7.113,0,0,0,44.125,40.9a16.177,16.177,0,0,1,7.109-2.5V40.25A21.489,21.489,0,0,0,44.488,41.788ZM59.524,64.4v.585H46.705V64.4a.611.611,0,0,1,.61-.61h11.6A.611.611,0,0,1,59.524,64.4ZM57.1,63.068H49.134a1.267,1.267,0,0,1,1.263-1.2h5.435A1.267,1.267,0,0,1,57.1,63.068Zm-2.818-1.913H51.952V40.941c.105,0,.211,0,.315,0h1.7c.1,0,.21,0,.315,0V61.155Zm7.464-19.367A21.493,21.493,0,0,0,55,40.25V38.4A16.175,16.175,0,0,1,62.1,40.9a7.11,7.11,0,0,0,4.962,1.037A6.494,6.494,0,0,1,61.741,41.788Zm4.113,1.281c.134-.023.263-.051.388-.081l4.4,11.269H61.49Zm.21,16.647a5.107,5.107,0,0,1-5.088-4.742H71.152A5.107,5.107,0,0,1,66.064,59.716Z" transform="translate(-28.313 -22.972)"/>
    </g>
  </g>
</svg>
