<svg xmlns="http://www.w3.org/2000/svg" viewBox="0 0 41.575 41.172">
  <defs>
    <style>
      .cls-1 {
        fill: #f26f0b;
      }
    </style>
  </defs>
  <g id="pay" transform="translate(0 -2.355)">
    <g id="Group_703" data-name="Group 703" transform="translate(0 29.121)">
      <g id="Group_702" data-name="Group 702">
        <path id="Path_253" data-name="Path 253" class="cls-1" d="M34.77,317.1l-2.325-2.366a.686.686,0,0,0-.892-.075L21.422,322.12l-3.587-1.687,3.148-.35a.686.686,0,0,0,.6-.686v-2.963a.686.686,0,0,0-.686-.686h-3.43l-5.776-.59a.687.687,0,0,0-.343.055L7.415,316.9H0v1.372H7.559a.686.686,0,0,0,.274-.055l3.9-1.708,5.632.576h2.874v1.7L17.7,319.1l-3.683-.391a.687.687,0,0,0-.364,1.3l7.607,3.5a.686.686,0,0,0,.686-.069l9.974-7.326,1.372,1.427L21.833,327.559H18.726L7.785,323.492a.684.684,0,0,0-.24-.048H0v1.372H7.429l10.934,4.074a.686.686,0,0,0,.24.041h3.485a.686.686,0,0,0,.453-.171l12.2-10.66.034-.031A.686.686,0,0,0,34.77,317.1Z" transform="translate(0 -314.527)"/>
      </g>
    </g>
    <g id="Group_705" data-name="Group 705" transform="translate(20.879 10.809)">
      <g id="Group_704" data-name="Group 704">
        <path id="Path_254" data-name="Path 254" class="cls-1" d="M259.222,109.665,255.6,105.9a.686.686,0,0,0-.439-.213L247.753,105h-2.826l.137-2.058,2.682-.542,3.745.837a.687.687,0,0,0,.233,0l3.642-.432-.165-1.372-3.526.377-3.773-.837a.562.562,0,0,0-.281,0l-3.341.686a.686.686,0,0,0-.556.631l-.22,3.341c0,.014,0,.028,0,.042a.686.686,0,0,0,.687.685h3.5l7.093.645,3.649,3.821a.686.686,0,0,0,.494.213h4.856v-1.372Z" transform="translate(-243.506 -100.956)"/>
      </g>
    </g>
    <g id="Group_707" data-name="Group 707" transform="translate(15.372 2.355)">
      <g id="Group_706" data-name="Group 706" transform="translate(0 0)">
        <path id="Path_255" data-name="Path 255" class="cls-1" d="M199.309,5.237a.61.61,0,0,0-.261-.123L187.388,2.369a.686.686,0,0,0-.562.13L179.28,7.987l.809,1.111,7.292-5.3L198.589,6.43l6.057,4.712.837-1.1Z" transform="translate(-179.28 -2.355)"/>
      </g>
    </g>
    <g id="Group_709" data-name="Group 709" transform="translate(19.584 6.5)">
      <g id="Group_708" data-name="Group 708">
        <path id="Path_256" data-name="Path 256" class="cls-1" d="M233.078,50.762a.686.686,0,0,0-.562,0L228.4,52.82l.617,1.221,3.841-1.914L236,53.41l.508-1.276Z" transform="translate(-228.4 -50.701)"/>
      </g>
    </g>
    <g id="Group_711" data-name="Group 711" transform="translate(13.719 11.287)">
      <g id="Group_710" data-name="Group 710">
        <path id="Path_257" data-name="Path 257" class="cls-1" d="M163.45,109.4l-1.207-.178c-.549-.082-.871-.295-.871-.638s.48-.686,1.125-.652h.494c.645,0,1.125.343,1.125.652v.185h1.372v-.185a2.277,2.277,0,0,0-2.5-2.058H162.5a2.277,2.277,0,0,0-2.5,2.058,2.2,2.2,0,0,0,2.058,1.962l1.187.178c.549.082.871.329.871.638s-.48.652-1.125.652H162.5c-.645,0-1.125-.343-1.125-.652v-.185H160v.185a2.292,2.292,0,0,0,2.5,2.024h.494a2.309,2.309,0,0,0,2.517-1.989A2.2,2.2,0,0,0,163.45,109.4Z" transform="translate(-160 -106.525)"/>
      </g>
    </g>
    <g id="Group_713" data-name="Group 713" transform="translate(9.603 7.857)">
      <g id="Group_712" data-name="Group 712">
        <path id="Path_258" data-name="Path 258" class="cls-1" d="M124.3,74.1a5.488,5.488,0,1,1-.453-3.018l1.242-.576a6.842,6.842,0,1,0,.583,3.78Z" transform="translate(-112.001 -66.525)"/>
      </g>
    </g>
    <g id="Group_715" data-name="Group 715" transform="translate(15.777 10.601)">
      <g id="Group_714" data-name="Group 714">
        <rect id="Rectangle_328" data-name="Rectangle 328" class="cls-1" width="1.372" height="1.372"/>
      </g>
    </g>
  </g>
</svg>
