<svg id="astronomy" xmlns="http://www.w3.org/2000/svg" viewBox="0 0 44.409 44.408">
  <defs>
    <style>
      .cls-1 {
        fill: #f26f0b;
      }
    </style>
  </defs>
  <path id="Path_318" data-name="Path 318" class="cls-1" d="M253.275,135.252a.716.716,0,0,0-1.013,0l-.568.568-1.136-1.136.568-.568a.715.715,0,0,0,0-1.013l-8.805-8.805.926-.926a.715.715,0,0,0,0-1.013L241.1,120.21a.716.716,0,0,0-1.013,0l-7.879,7.879a.715.715,0,0,0,0,1.013l2.149,2.149a.716.716,0,0,0,1.013,0l.926-.926,3.581,3.581v6.169a3.538,3.538,0,0,0-.152,5.567l-6.8,6.8a.716.716,0,0,0,.506,1.223h4.3a.714.714,0,0,0,.506-.21l1.642-1.642v1.136a.716.716,0,0,0,.716.716h2.865a.716.716,0,0,0,.716-.716v-1.136l1.642,1.642a.714.714,0,0,0,.506.21h4.3a.716.716,0,0,0,.506-1.223l-6.8-6.8a3.538,3.538,0,0,0-.152-5.567V138.2l.926.926a.716.716,0,0,0,1.013,0l.568-.568,1.136,1.136-.568.568a.715.715,0,0,0,0,1.013l2.149,2.149a.716.716,0,0,0,1.013,0l5.014-5.014a.715.715,0,0,0,0-1.013Zm-18.413-5.52-1.136-1.136,6.866-6.866,1.136,1.136Zm7.163,11.041a2.149,2.149,0,1,1-2.149,2.149A2.152,2.152,0,0,1,242.025,140.772Zm-4.594,11.46h-2.272l4.717-4.717v2.272Zm3.878,0v-5.8a3.578,3.578,0,0,0,1.433,0v5.8Zm5.31,0-2.445-2.445v-2.272l4.717,4.717Zm-3.878-12.82a3.581,3.581,0,0,0-1.433,0v-4.073l1.433,1.433Zm1.729-2.937,1.642-1.642-1.013-1.013-1.642,1.642-4-4,1.642-1.642-1.013-1.013-1.642,1.642-1.136-1.136,4-4,8.3,8.3-4,4Zm3.223,1.074,1.852-1.852,1.136,1.136-1.852,1.852Zm2.21,4.359-1.136-1.136,4-4,1.136,1.136Zm0,0" transform="translate(-211.225 -109.256)"/>
  <path id="Path_319" data-name="Path 319" class="cls-1" d="M106.149,44.3A2.149,2.149,0,1,0,104,42.149,2.151,2.151,0,0,0,106.149,44.3Zm0-2.865a.716.716,0,1,1-.716.716A.717.717,0,0,1,106.149,41.433Zm0,0" transform="translate(-94.689 -36.419)"/>
  <path id="Path_320" data-name="Path 320" class="cls-1" d="M5.8,12.173a8.58,8.58,0,0,0,15.611,0c3.222-.666,5.8-1.823,5.8-3.576,0-1.953-3.054-3.018-5.806-3.582a8.579,8.579,0,0,0-15.606,0C3.074,5.574,0,6.638,0,8.6,0,10.311,2.471,11.489,5.8,12.173Zm7.805,3.585A7.157,7.157,0,0,1,7.6,12.483a42.06,42.06,0,0,0,4.965.395,2.842,2.842,0,0,0,5.036-.159c.673-.06,1.347-.138,2.012-.234a7.156,7.156,0,0,1-6.006,3.273Zm0-4.3a1.433,1.433,0,1,1,1.433,1.433A1.434,1.434,0,0,1,13.609,11.46ZM25.786,8.6c0,.482-1.171,1.337-3.823,1.991a8.313,8.313,0,0,0,0-3.982C24.723,7.282,25.786,8.153,25.786,8.6ZM13.609,1.433a7.145,7.145,0,0,1,6.769,9.484c-.746.131-1.575.245-2.493.336a2.856,2.856,0,0,0-5.706.181,37.209,37.209,0,0,1-5.338-.516,7.144,7.144,0,0,1,6.768-9.486ZM5.256,6.606a8.307,8.307,0,0,0,0,3.978C2.732,9.959,1.433,9.136,1.433,8.6c0-.44,1.063-1.312,3.823-1.99Zm0,0" transform="translate(0 0)"/>
  <path id="Path_321" data-name="Path 321" class="cls-1" d="M11.46,197.73a5.73,5.73,0,1,0-5.73,5.73A5.737,5.737,0,0,0,11.46,197.73Zm-1.433,0H8.953l-1.791-2.387v-1.66A4.3,4.3,0,0,1,10.028,197.73Zm-7.163-3.195v2.279l-1.262,2.1a4.266,4.266,0,0,1,1.262-4.382Zm-.488,5.877,1.818-3.03a.712.712,0,0,0,.1-.369v-3.331a4.277,4.277,0,0,1,1.433-.251v2.149a.712.712,0,0,0,.143.43l2.149,2.865a.715.715,0,0,0,.573.286H9.777a4.289,4.289,0,0,1-7.4,1.25Zm0,0" transform="translate(0 -174.81)"/>
  <path id="Path_322" data-name="Path 322" class="cls-1" d="M56,272h1.433v1.433H56Zm0,0" transform="translate(-50.986 -247.647)"/>
  <path id="Path_323" data-name="Path 323" class="cls-1" d="M140.615,278.643c1.829-.459,3.142-1.23,3.142-2.346,0-1.556-2.446-2.256-4.084-2.551a4.995,4.995,0,0,0-7.589,0c-1.638.294-4.084.995-4.084,2.551,0,1.116,1.314,1.887,3.142,2.346a5.007,5.007,0,0,0,9.473,0Zm1.711-2.356c-.05.182-.532.5-1.437.79,0-.021,0-.041,0-.063a4.984,4.984,0,0,0-.259-1.581c1.259.362,1.663.763,1.692.854Zm-6.447-2.855a3.586,3.586,0,0,1,3.581,3.581,3.45,3.45,0,0,1-.043.423,21.532,21.532,0,0,1-7.077,0,3.473,3.473,0,0,1-.043-.424A3.586,3.586,0,0,1,135.879,273.432Zm-6.447,2.877c.029-.107.434-.513,1.692-.875a4.977,4.977,0,0,0-.259,1.58c0,.023,0,.044,0,.068C129.964,276.792,129.481,276.481,129.432,276.309Zm6.447,4.286a3.578,3.578,0,0,1-2.994-1.627,23.191,23.191,0,0,0,5.988,0A3.578,3.578,0,0,1,135.879,280.6Zm0,0" transform="translate(-116.54 -247.647)"/>
  <path id="Path_324" data-name="Path 324" class="cls-1" d="M416.716,124.3a2.152,2.152,0,0,1,2.149,2.149.716.716,0,0,0,1.433,0,2.152,2.152,0,0,1,2.149-2.149.716.716,0,0,0,0-1.433,2.151,2.151,0,0,1-2.149-2.149.716.716,0,0,0-1.433,0,2.151,2.151,0,0,1-2.149,2.149.716.716,0,1,0,0,1.433Zm2.865-1.435a3.613,3.613,0,0,0,.718.718,3.622,3.622,0,0,0-.718.718,3.623,3.623,0,0,0-.718-.718A3.613,3.613,0,0,0,419.581,122.863Zm0,0" transform="translate(-378.754 -109.256)"/>
  <path id="Path_325" data-name="Path 325" class="cls-1" d="M336.716,28.3a2.152,2.152,0,0,1,2.149,2.149.716.716,0,0,0,1.433,0,2.152,2.152,0,0,1,2.149-2.149.716.716,0,1,0,0-1.433,2.151,2.151,0,0,1-2.149-2.149.716.716,0,0,0-1.433,0,2.151,2.151,0,0,1-2.149,2.149.716.716,0,1,0,0,1.433Zm2.865-1.435a3.61,3.61,0,0,0,.718.718,3.619,3.619,0,0,0-.718.718,3.623,3.623,0,0,0-.718-.718A3.614,3.614,0,0,0,339.581,26.863Zm0,0" transform="translate(-305.917 -21.851)"/>
  <path id="Path_326" data-name="Path 326" class="cls-1" d="M70.446,354.865a2.151,2.151,0,0,1-2.149-2.149.716.716,0,1,0-1.433,0,2.151,2.151,0,0,1-2.149,2.149.716.716,0,0,0,0,1.433,2.152,2.152,0,0,1,2.149,2.149.716.716,0,1,0,1.433,0,2.152,2.152,0,0,1,2.149-2.149.716.716,0,1,0,0-1.433ZM67.581,356.3a3.621,3.621,0,0,0-.718-.718,3.614,3.614,0,0,0,.718-.718,3.614,3.614,0,0,0,.718.718A3.621,3.621,0,0,0,67.581,356.3Zm0,0" transform="translate(-58.27 -320.484)"/>
</svg>
