<svg xmlns="http://www.w3.org/2000/svg" viewBox="0 0 43.581 44.342">
  <defs>
    <style>
      .cls-1, .cls-2 {
        fill: #f26f0b;
      }

      .cls-2 {
        stroke: #f26f0b;
        stroke-width: 0.3px;
      }
    </style>
  </defs>
  <g id="user_2_" data-name="user (2)" transform="translate(-0.35 0.15)">
    <path id="Path_135" data-name="Path 135" class="cls-1" d="M50.691,40.277l-1.1-.211a1.5,1.5,0,0,1-.927-2.363l.691-.942a.762.762,0,0,0-.076-.99L47.786,34.28a.764.764,0,0,0-.966-.092l-.927.628A1.5,1.5,0,0,1,43.565,33.8l-.178-1.154A.761.761,0,0,0,42.635,32H40.525a.762.762,0,0,0-.748.619L39.5,34.04A1.5,1.5,0,0,1,37.187,35l-1.2-.811a.764.764,0,0,0-.966.092L33.53,35.772a.761.761,0,0,0-.076.99l.691.942a1.5,1.5,0,0,1-.927,2.363l-1.1.211a.763.763,0,0,0-.619.748v2.111a.762.762,0,0,0,.646.753l1.154.178a1.5,1.5,0,0,1,1.016,2.328l-.628.927a.762.762,0,0,0,.092.966l1.492,1.493a.764.764,0,0,0,.99.076l.942-.691a1.5,1.5,0,0,1,2.363.927l.211,1.1a.763.763,0,0,0,.749.617h2.111a.762.762,0,0,0,.753-.646l.125-.811a1.5,1.5,0,0,1,2.373-.983l.662.486a.761.761,0,0,0,.99-.076l1.492-1.493a.762.762,0,0,0,.092-.966l-.628-.927a1.5,1.5,0,0,1,1.016-2.328l1.154-.178a.763.763,0,0,0,.646-.753V41.025A.764.764,0,0,0,50.691,40.277Zm-.905,2.206-.508.078a3.026,3.026,0,0,0-2.045,4.687l.275.406-.585.585-.135-.1a3.026,3.026,0,0,0-4.78,1.979l-.025.166h-.827l-.092-.482A3.026,3.026,0,0,0,36.3,47.935l-.414.3-.585-.585.275-.406a3.026,3.026,0,0,0-2.045-4.687l-.508-.078v-.827l.482-.092A3.026,3.026,0,0,0,35.375,36.8l-.3-.414.585-.585.677.459A3.026,3.026,0,0,0,41,34.327l.153-.8h.827l.078.508a3.026,3.026,0,0,0,4.687,2.045l.406-.275.585.585-.3.414A3.026,3.026,0,0,0,49.3,41.563l.482.092v.827Z" transform="translate(-7.38 -7.618)"/>
    <path id="Path_136" data-name="Path 136" class="cls-1" d="M43.31,40a3.81,3.81,0,1,0,3.81,3.81A3.814,3.814,0,0,0,43.31,40Zm0,6.1A2.286,2.286,0,1,1,45.6,43.81,2.289,2.289,0,0,1,43.31,46.1Z" transform="translate(-9.285 -9.523)"/>
    <path id="Path_137" data-name="Path 137" class="cls-2" d="M21.453,40.382c-.483,0-.965-.024-1.444-.059-.083-.006-.166-.011-.248-.019-.483-.043-.964-.1-1.44-.178l-.064-.011a19.357,19.357,0,0,1-2.964-.74l-.09-.03c-.479-.163-.953-.343-1.419-.543l-.01,0c-.44-.19-.872-.4-1.3-.622-.056-.029-.112-.056-.167-.086-.389-.208-.77-.433-1.146-.667q-.167-.105-.331-.213c-.346-.226-.687-.462-1.019-.711l-.1-.079.073-.041,6.025-3.286a3.222,3.222,0,0,0,1.68-2.83V27.517l-.175-.212a12.722,12.722,0,0,1-2.287-4.736l-.069-.3L14.7,22.1a1.263,1.263,0,0,1-.586-1.061v-2.7a1.244,1.244,0,0,1,.424-.932l.251-.227V12.934l-.007-.1a4.589,4.589,0,0,1,1.064-3.322c1.1-1.256,2.99-1.893,5.61-1.893s4.492.632,5.6,1.879a4.666,4.666,0,0,1,1.077,3.338L28.12,17.18l.251.227a1.246,1.246,0,0,1,.424.932v2.7a1.273,1.273,0,0,1-.9,1.2.762.762,0,0,0,.45,1.455A2.772,2.772,0,0,0,30.32,21.04v-2.7a2.772,2.772,0,0,0-.676-1.805V12.978A6.145,6.145,0,0,0,28.209,8.51C26.8,6.907,24.532,6.1,21.453,6.1S16.1,6.907,14.7,8.509a6.146,6.146,0,0,0-1.435,4.468v3.556a2.776,2.776,0,0,0-.676,1.805v2.7a2.772,2.772,0,0,0,1.021,2.149,14.317,14.317,0,0,0,2.357,4.868v2.205a1.7,1.7,0,0,1-.885,1.492L9.054,35.04a5.507,5.507,0,0,0-.573.363,19.424,19.424,0,1,1,32.4-14.449.762.762,0,0,0,1.524,0A20.953,20.953,0,1,0,7.3,36.388l-.02.018.68.573c.044.037.092.068.136.1.361.3.735.584,1.116.859.123.089.247.179.373.265q.61.421,1.251.8c.093.055.187.108.28.162.467.266.944.517,1.432.747l.108.049a20.765,20.765,0,0,0,5.068,1.6l.14.025c.552.1,1.109.171,1.674.222l.206.016c.563.046,1.131.076,1.707.076a.762.762,0,0,0,0-1.524Z"/>
  </g>
</svg>
