<svg xmlns="http://www.w3.org/2000/svg" viewBox="0 0 34.653 37.984">
  <defs>
    <style>
      .cls-1 {
        fill: #e0670b;
        stroke: #e0670b;
      }

      .cls-1, .cls-3 {
        stroke-width: 0.6px;
      }

      .cls-2 {
        fill: #fff;
      }

      .cls-3, .cls-5 {
        fill: #e96b0b;
      }

      .cls-3 {
        stroke: #e96b0b;
      }

      .cls-4, .cls-5 {
        stroke: none;
      }
    </style>
  </defs>
  <g id="Group_914" data-name="Group 914" transform="translate(-243.347 -483.016)">
    <g id="file" transform="translate(237.147 483.315)">
      <path id="Path_277" data-name="Path 277" class="cls-1" d="M31.827,22H17.089a.589.589,0,1,0,0,1.179H31.827a.589.589,0,0,0,0-1.179Z" transform="translate(-4.105 -9.031)"/>
      <path id="Path_278" data-name="Path 278" class="cls-1" d="M17.089,15.179h5.895a.589.589,0,0,0,0-1.179H17.089a.589.589,0,0,0,0,1.179Z" transform="translate(-4.105 -5.747)"/>
      <path id="Path_279" data-name="Path 279" class="cls-1" d="M31.827,30H17.089a.589.589,0,1,0,0,1.179H31.827a.589.589,0,0,0,0-1.179Z" transform="translate(-4.105 -12.315)"/>
      <path id="Path_280" data-name="Path 280" class="cls-1" d="M27.425,38H16.92c-.232,0-.42.263-.42.589s.188.589.42.589h10.5c.232,0,.42-.264.42-.589S27.657,38,27.425,38Z" transform="translate(-4.105 -15.6)"/>
      <path id="Path_281" data-name="Path 281" class="cls-1" d="M25.338,46h-8.5c-.188,0-.34.263-.34.589s.152.589.34.589h8.5c.188,0,.34-.263.34-.589S25.526,46,25.338,46Z" transform="translate(-4.105 -18.884)"/>
      <path id="Path_282" data-name="Path 282" class="cls-1" d="M25.608,0H6.5V35.369H34.206V8.6Zm.345,2.013,6.24,6.24h-6.24ZM7.679,34.19V1.179h17.1V9.432h8.253V34.19Z"/>
    </g>
    <g id="Path_291" data-name="Path 291" class="cls-2" transform="translate(261 504)">
      <path class="cls-4" d="M 8.5 16.25 C 4.226640224456787 16.25 0.75 12.77336025238037 0.75 8.5 C 0.75 4.226640224456787 4.226640224456787 0.75 8.5 0.75 C 12.77336025238037 0.75 16.25 4.226640224456787 16.25 8.5 C 16.25 12.77336025238037 12.77336025238037 16.25 8.5 16.25 Z"/>
      <path class="cls-5" d="M 8.5 1.5 C 4.640190124511719 1.5 1.5 4.640190124511719 1.5 8.5 C 1.5 12.35980987548828 4.640190124511719 15.5 8.5 15.5 C 12.35980987548828 15.5 15.5 12.35980987548828 15.5 8.5 C 15.5 4.640190124511719 12.35980987548828 1.5 8.5 1.5 M 8.5 0 C 13.19441986083984 0 17 3.805580139160156 17 8.5 C 17 13.19441986083984 13.19441986083984 17 8.5 17 C 3.805580139160156 17 0 13.19441986083984 0 8.5 C 0 3.805580139160156 3.805580139160156 0 8.5 0 Z"/>
    </g>
    <g id="success" transform="translate(261.864 505.864)">
      <path id="Path_284" data-name="Path 284" class="cls-3" d="M19.2,15.092l-4.218,4.745L12.446,17.8a.274.274,0,0,0-.343.429l2.745,2.2a.275.275,0,0,0,.377-.032l4.391-4.94a.275.275,0,0,0-.411-.364Z" transform="translate(-8.706 -10.883)"/>
    </g>
  </g>
</svg>
