<svg xmlns="http://www.w3.org/2000/svg" viewBox="0 0 21.61 21.61">
  <defs>
    <style>
      .cls-1 {
        fill: #fff;
      }
    </style>
  </defs>
  <path id="yahoo" class="cls-1" d="M21.305,20.573h-8.5a.3.3,0,0,0-.226.107.344.344,0,0,0-.078.252l.166,1.847a.316.316,0,0,0,.287.3l1.775.105-3.408,5.083L7.61,20.3l2.683-.11a.317.317,0,0,0,.293-.323l.02-1.651a.342.342,0,0,0-.088-.234.3.3,0,0,0-.217-.1H.3a.317.317,0,0,0-.3.328v1.84a.317.317,0,0,0,.3.328l2.824.044L8.5,30.612l-.024,6.362-3.734.165a.317.317,0,0,0-.292.321l-.03,1.7A.341.341,0,0,0,4.5,39.4a.294.294,0,0,0,.217.1H16.4a.3.3,0,0,0,.221-.1.342.342,0,0,0,.083-.243l-.082-1.685a.317.317,0,0,0-.288-.31l-3.213-.181-.468-6.2,5.768-7.472,2.348-.115a.31.31,0,0,0,.278-.233l.545-1.952a.351.351,0,0,0,.016-.106A.317.317,0,0,0,21.305,20.573Z" transform="translate(0 -17.886)"/>
</svg>
