<svg xmlns="http://www.w3.org/2000/svg" viewBox="0 0 28.411 28.694">
  <defs>
    <style>
      .cls-1 {
        fill: #fff;
        stroke: #fff;
        stroke-width: 0.5px;
      }
    </style>
  </defs>
  <g id="wallet_1_" data-name="wallet (1)" transform="translate(-1.431 0.25)">
    <path id="Path_204" data-name="Path 204" class="cls-1" d="M29.592,13.134H28.24V6.911a2.709,2.709,0,0,0-2.705-2.705H23.7L21.827.835A1.623,1.623,0,0,0,19.619.2l-7.2,4H4.386A2.709,2.709,0,0,0,1.681,6.911V25.489a2.709,2.709,0,0,0,2.705,2.705H25.534a2.709,2.709,0,0,0,2.705-2.705V20.033h1.353v-6.9ZM25.534,5.288A1.62,1.62,0,0,1,27.14,6.731H25.106l-.8-1.443ZM20.146,1.15a.551.551,0,0,1,.735.21l2.987,5.37H10.11Zm7.012,24.339a1.625,1.625,0,0,1-1.623,1.623H4.386a1.625,1.625,0,0,1-1.623-1.623V6.911A1.625,1.625,0,0,1,4.386,5.288h6.092l-2.6,1.443H4.725a.541.541,0,0,0,0,1.082H27.157v5.321H23.2a3.337,3.337,0,0,0-3.333,3.333V16.7A3.337,3.337,0,0,0,23.2,20.034h3.957Zm1.353-6.538H23.2A2.253,2.253,0,0,1,20.949,16.7v-.233A2.253,2.253,0,0,1,23.2,14.216h5.31Zm-3.652-2.323a1.195,1.195,0,1,1-1.195-1.195A1.194,1.194,0,0,1,24.858,16.628Z"/>
  </g>
</svg>
